<?xml version="1.0" encoding="UTF-8" standalone="no"?>
<svg
   xmlns:dc="http://purl.org/dc/elements/1.1/"
   xmlns:cc="http://creativecommons.org/ns#"
   xmlns:rdf="http://www.w3.org/1999/02/22-rdf-syntax-ns#"
   xmlns:svg="http://www.w3.org/2000/svg"
   xmlns="http://www.w3.org/2000/svg"
   xmlns:sodipodi="http://sodipodi.sourceforge.net/DTD/sodipodi-0.dtd"
   xmlns:inkscape="http://www.inkscape.org/namespaces/inkscape"
   version="1.1"
   id="Layer_1"
   x="0px"
   y="0px"
   viewBox="42 120 415.42557 482.83264"
   xml:space="preserve"
   sodipodi:docname="birb.svg"
   inkscape:version="1.0beta1 (32d4812, 2019-09-19)"
   width="415.42557"
   height="482.83264"
   inkscape:export-filename="/Users/ivan/Desktop/birb.png"
   inkscape:export-xdpi="96"
   inkscape:export-ydpi="96"><metadata
   id="metadata859">
  <rdf:RDF>
    <cc:Work
       rdf:about="">
      <dc:format>image/svg+xml</dc:format>
      <dc:type
         rdf:resource="http://purl.org/dc/dcmitype/StillImage" />
      <dc:title></dc:title>
    </cc:Work>
  </rdf:RDF>
</metadata>
<defs
   id="defs857" />
<sodipodi:namedview
   fit-margin-bottom="0"
   fit-margin-right="0"
   fit-margin-left="0"
   fit-margin-top="0"
   inkscape:current-layer="Layer_1"
   inkscape:window-maximized="0"
   inkscape:window-y="27"
   inkscape:window-x="47"
   inkscape:cy="215.86608"
   inkscape:cx="105.41258"
   inkscape:zoom="1.4143681"
   showgrid="false"
   id="namedview855"
   inkscape:window-height="922"
   inkscape:window-width="1680"
   inkscape:pageshadow="2"
   inkscape:pageopacity="0"
   guidetolerance="10"
   gridtolerance="10"
   objecttolerance="10"
   borderopacity="1"
   inkscape:document-rotation="0"
   bordercolor="#666666"
   pagecolor="#ffffff" />

<style
   id="style833"
   type="text/css">
	.st0{fill:none;enable-background:new    ;}
	.st1{fill:#011430;}
	.st2{fill:#0365A5;}
	.st3{fill:#6497B1;}
	.st4{fill:#005B96;}
	.st5{fill:#1D4D7F;}
	.st6{fill:#B3CDE0;}
	.st7{fill:#011F4B;}
</style>


<path
   inkscape:connector-curvature="0"
   id="path837"
   d=""
   class="st0" />

<path
   sodipodi:nodetypes="ccscc"
   inkscape:connector-curvature="0"
   id="path839"
   d="m 264.20746,467.83264 -12,6 c 0,0 -3.6,1.3 -4,3 -0.4,1.7 1,6 1,6 2.49659,-10.64832 26.79703,-11.61756 29,-18"
   class="st1" />

<path
   sodipodi:nodetypes="ccccc"
   inkscape:connector-curvature="0"
   id="path841"
   d="m 258.20746,466.83264 c 0,0 -5.2,2.6 -16,1 -10.67175,-1.68879 -7.92141,4.27506 -6,11 0,0 1.23448,-5.04101 1.55424,-5.59691 1.36042,-3.17431 9.14576,1.89691 34.44576,-4.40309"
   class="st1" />

<path
   inkscape:connector-curvature="0"
   id="path843"
   d="m 372.20746,454.93264 74,147.9 -3.4,-149 z"
   class="st2" />

<path
   sodipodi:nodetypes="ccccccc"
   inkscape:connector-curvature="0"
   d="m 238.20746,255.83264 c 2.10035,81.76677 84.54061,156.02185 142,199 0,0 27.3,15.6 46,24 1.5,0.7 11.9,4.1 13,4 11.2,-0.7 6,-14 6,-14 l -4,-27 c -17.64527,-100.02337 -124.33576,-133.84219 -203,-186 z"
   class="st3"
   id="under" />

<path
   sodipodi:nodetypes="csscccsccc"
   inkscape:connector-curvature="0"
   d="m 263.20746,225.83264 c 0,0 1.11317,-11.47496 4.00799,-15.37881 2.89196,-3.9 8.35304,3.06008 36.45304,2.46008 28.1,-0.6 43.53897,-15.08127 43.53897,-15.08127 0,0 17.11028,13.12243 31,33 45.1605,86.50067 69.94135,147.42331 79,235 0.4,5 0.9,25.7 -5,26 -5.9,0.3 -15,-36 -15,-36 0,0 -12.2,-27 -18,-41 -26.4,-64.1 -156,-189 -156,-189 z"
   class="st4"
   id="back" />

<path
   sodipodi:nodetypes="cccccccccc"
   inkscape:connector-curvature="0"
   d="m 158.20746,180.83264 c 0,0 -121.899996,66.8 -115.999996,74 7.9,9.8 72.999996,-12 72.999996,-12 l 50.55657,-16.92761 -4.44755,-1.13399 30.59716,-16.51185 -8.70618,-7.42655 5.17223,-6.62537 8.0785,-7.69185 z"
   class="st5"
   id="beak" />

<path
   style="display:inline"
   sodipodi:nodetypes="cccccc"
   inkscape:connector-curvature="0"
   d="m 190.20746,207.83264 c 0,0 32.4,4.4 32,9 4.47962,10.77229 2.39768,9.80696 -1,20 -11.09859,-14.03939 -26.00133,-14.03955 -26.00133,-14.03955 0,0 -27.64986,8.38836 -34.99867,1.03955 z"
   class="st6"
   id="throat" />

<path
   sodipodi:nodetypes="ccccssccsc"
   inkscape:connector-curvature="0"
   d="m 158.20746,180.83264 c 32.22429,-68.00175 116.86041,-78.48146 152,-34 22.00494,30.67571 40.75938,51.63952 70,74 -39.06044,-10.31778 -78.55835,-12.08974 -117,4 -8.5,3.3 -21.7518,14.47254 -23.7518,28.77254 -2,14.3 -23.64054,25.08468 -17.44054,53.38468 6.2,28.3 -16.40766,-53.45722 -1.80766,-70.15722 9.2861,-24.57533 -3.42058,-24.06973 -30.1579,-28.78948 -25.2,-1.2 9.83047,-22.63233 4.87901,-21.73062 -3.74927,0.68278 -36.72111,-5.4799 -36.72111,-5.4799 z"
   class="st2"
   id="head" />

<path
   sodipodi:nodetypes="cccccccccc"
   inkscape:connector-curvature="0"
   d="m 238.20746,255.83264 c 21.99847,84.32665 63.45802,118.2281 113.91216,174.50387 0,0 8.00089,9.50321 19.08784,17.49613 13.83839,7.7792 20.67686,20.87772 19,41 -14.07779,-10.39144 -37.14176,-39.01045 -52,-32 -11.99118,4.82745 -24.64385,-3.0692 -34,-10 0,0 -30.2011,5.59562 -17,-5 l -1,-9 c -28.30206,-51.59505 -65.38202,-89.30715 -65.3,-140.8 -0.2,-0.7 5.4,-26.6 17.3,-36.2 z"
   class="st1"
   id="bod" />

<path
   sodipodi:nodetypes="ccccccsssscc"
   inkscape:connector-curvature="0"
   d="m 287.20746,441.83264 -23,22 -6,3 5.08228,1.87975 c 6.75273,-0.90518 12.41083,-1.20137 18.91772,0.12025 7.89856,0.95393 22.8499,-2.42919 24,7 0.2961,3.02019 0.34966,6.82545 1.20131,6.12997 0.58647,-0.47893 1.76445,-3.30523 2.79869,-9.12997 1.44977,-8.16494 -9.78206,-9.02516 -11,-9 -11.27893,0.233 -23.9,5.2 -11,-6 12.9,-11.2 11.81414,-12.07412 13,-12 0.81528,-0.77822 -14,-4 -14,-4 z"
   class="st1"
   id="leg" />

<path
   sodipodi:nodetypes="ccscccc"
   inkscape:connector-curvature="0"
   d="m 377.20746,393.83264 c -0.2,-7.5 -1.5,-14.9 -4,-22 -4.2,-12.2 -22.2,-55.2 -30,-65 -7.8,-9.8 -38.22248,-55.51087 -48,-67 -19.52736,-25.51434 -62.15052,-19.68095 -57,17 l -0.34219,-1.19765 c 43.41791,69.93051 71.74286,116.98758 139.34219,138.19765 z"
   class="st7"
   id="full_wing" />

<path
   sodipodi:nodetypes="cccc"
   inkscape:connector-curvature="0"
   d="m 296.20746,241.20139 c 92.64851,-15.63124 153.89495,176.9521 129.18276,192.58621 l -51.18276,-59.95496 z"
   class="st6"
   id="backwing" />

</svg>
