<?xml version="1.0" standalone="no"?>
<!DOCTYPE svg PUBLIC "-//W3C//DTD SVG 20010904//EN"
 "http://www.w3.org/TR/2001/REC-SVG-20010904/DTD/svg10.dtd">
<svg version="1.0" xmlns="http://www.w3.org/2000/svg"
 width="966.000000pt" height="966.000000pt" viewBox="0 0 966.000000 966.000000"
 preserveAspectRatio="xMidYMid meet">
<metadata>
Created by potrace 1.11, written by Peter Selinger 2001-2013
</metadata>
<g transform="translate(0.000000,966.000000) scale(0.100000,-0.100000)"
fill="#000000" stroke="none">
<path d="M4635 9645 c-672 -82 -1272 -504 -1582 -1110 l-46 -91 -151 -83
c-706 -392 -1431 -821 -1781 -1054 -236 -158 -395 -291 -395 -332 0 -47 132
-72 300 -56 330 31 692 128 1579 423 l574 191 -36 18 c-20 11 -38 22 -40 26
-3 5 127 78 289 164 l294 157 168 -29 c301 -52 394 -85 456 -162 30 -38 31
-42 31 -135 -1 -109 -28 -217 -72 -284 -50 -75 -65 -154 -70 -374 -8 -300 30
-598 133 -1062 119 -531 259 -824 790 -1652 192 -299 331 -523 424 -685 59
-102 64 -115 73 -200 l10 -90 -224 -218 c-195 -189 -234 -223 -301 -258 -105
-53 -192 -66 -342 -50 -114 12 -160 6 -178 -22 -13 -20 -9 -80 9 -138 l16 -54
16 52 c9 29 21 57 26 62 6 5 86 11 179 13 l168 5 -65 -34 c-74 -37 -91 -59
-82 -106 14 -70 15 -72 34 -41 44 73 118 117 311 187 69 25 141 52 160 61 28
11 51 13 105 6 39 -5 126 -10 195 -10 197 0 291 -23 331 -80 11 -15 21 -55 26
-99 5 -43 13 -76 20 -78 17 -6 56 128 57 198 1 51 -2 61 -28 88 -16 17 -55 40
-85 52 -59 22 -69 22 -338 3 -89 -6 -93 -6 -93 13 0 14 57 75 163 175 153 146
165 155 211 161 46 7 51 5 145 -58 235 -156 412 -197 586 -135 89 32 167 24
275 -27 134 -63 238 -142 495 -378 66 -60 146 -132 179 -160 l58 -50 574
-1145 575 -1145 -6 325 c-3 179 -15 720 -26 1204 -18 757 -19 881 -7 893 13
12 18 5 42 -52 71 -165 130 -205 175 -116 35 68 46 148 45 341 0 143 -7 231
-27 385 -120 886 -285 1557 -572 2325 -204 545 -419 1018 -824 1818 -149 294
-207 388 -323 521 -16 18 -28 35 -25 37 2 2 50 -8 107 -21 56 -14 104 -24 106
-22 2 1 -32 29 -74 62 -42 33 -140 114 -216 180 -358 308 -613 588 -976 1070
-227 302 -346 413 -567 524 -284 142 -623 198 -958 156z m1600 -2420 c380 -85
745 -328 1076 -715 148 -173 335 -442 469 -675 90 -157 268 -524 339 -701 273
-683 401 -1364 306 -1635 -18 -51 -63 -122 -74 -117 -4 2 -183 208 -396 458
-214 250 -441 516 -506 592 -65 75 -125 151 -135 170 -16 32 -1366 2332 -1485
2531 -39 64 -55 99 -46 102 55 19 353 13 452 -10z"/>
</g>
</svg>
